PathFileType  4	(X/Y/Z) /dataNAS/people/anoopai/OpenCap/opencap-core/Examples/Data/d712a0c6-d1a0-423f-8dc2-b78d41b5c55e/MarkerData/PreAugmentation
DataRate	CameraRate	NumFrames	NumMarkers	Units	OrigDataRate	OrigDataStartFrame	OrigNumFrames
60.0	60.0	14	20	m	60.0	765	874
Frame#	Time	Neck			RShoulder			RElbow			RWrist			LShoulder			LElbow			LWrist			midHip			RHip			RKnee			RAnkle			LHip			LKnee			LAnkle			LBigToe			LSmallToe			LHeel			RBigToe			RSmallToe			RHeel			
		X1	Y1	Z1	X2	Y2	Z2	X3	Y3	Z3	X4	Y4	Z4	X5	Y5	Z5	X6	Y6	Z6	X7	Y7	Z7	X8	Y8	Z8	X9	Y9	Z9	X10	Y10	Z10	X11	Y11	Z11	X12	Y12	Z12	X13	Y13	Z13	X14	Y14	Z14	X15	Y15	Z15	X16	Y16	Z16	X17	Y17	Z17	X18	Y18	Z18	X19	Y19	Z19	X20	Y20	Z20	

765	12.7333333	0.4747400	0.7654000	-0.3175100	0.4072400	0.7599100	-0.4758700	0.3949700	0.4828600	-0.4658800	0.4356800	0.2502700	-0.3918100	0.5449400	0.7714100	-0.1656600	0.5532400	0.4591500	-0.0856900	0.5257900	0.1838000	-0.0278400	0.3884400	0.2419100	-0.2721600	0.3835900	0.2261400	-0.3717200	0.3094400	-0.1752600	-0.2864300	0.7040600	-0.2680500	-0.1241300	0.3972000	0.2584600	-0.1730000	0.2735000	-0.1294500	-0.0342100	0.6738200	-0.2951400	0.0813400	0.6171100	-0.4513500	0.1623700	0.6174700	-0.4480100	0.1600300	0.7275200	-0.3019500	0.0747600	0.6546600	-0.4828900	-0.1349300	0.6584300	-0.4768600	-0.1348300	0.7667200	-0.2568400	-0.0913400
766	12.7500000	0.4747500	0.7651800	-0.3179500	0.4052600	0.7599700	-0.4760900	0.3953500	0.4842400	-0.4649800	0.4392000	0.2502200	-0.3877000	0.5465700	0.7711500	-0.1665400	0.5560700	0.4589900	-0.0879000	0.5305200	0.1821400	-0.0307400	0.3827800	0.2410600	-0.2739800	0.3777200	0.2261100	-0.3735400	0.3095000	-0.1748300	-0.2862600	0.7037800	-0.2681100	-0.1249700	0.3915400	0.2571200	-0.1749500	0.2735100	-0.1288600	-0.0340800	0.6726800	-0.2950600	0.0805800	0.6163100	-0.4516500	0.1618900	0.6166100	-0.4483100	0.1595600	0.7260500	-0.3020300	0.0737700	0.6539500	-0.4830900	-0.1352500	0.6577300	-0.4770800	-0.1351400	0.7672800	-0.2566900	-0.0919600
767	12.7666667	0.4747500	0.7651100	-0.3183300	0.4035000	0.7599400	-0.4761200	0.3953800	0.4849200	-0.4643900	0.4405400	0.2554200	-0.3863200	0.5480100	0.7708900	-0.1674200	0.5588700	0.4587100	-0.0902500	0.5347600	0.1803100	-0.0333000	0.3780600	0.2393100	-0.2754200	0.3728600	0.2248100	-0.3747500	0.3095300	-0.1744600	-0.2860900	0.7033800	-0.2682100	-0.1260100	0.3868500	0.2546800	-0.1765800	0.2736100	-0.1286400	-0.0338600	0.6717700	-0.2950300	0.0799600	0.6153300	-0.4518100	0.1614400	0.6155900	-0.4485300	0.1591200	0.7248300	-0.3025100	0.0729000	0.6534500	-0.4842700	-0.1353400	0.6572600	-0.4783200	-0.1352200	0.7679100	-0.2568300	-0.0927000
768	12.7833333	0.4748200	0.7648500	-0.3185800	0.4020200	0.7597700	-0.4759200	0.3950200	0.4856400	-0.4641800	0.4406600	0.2592800	-0.3858000	0.5493100	0.7705900	-0.1682600	0.5616400	0.4584300	-0.0926500	0.5382900	0.1792700	-0.0357900	0.3740100	0.2385000	-0.2769600	0.3688000	0.2243800	-0.3759000	0.3096600	-0.1745200	-0.2858100	0.7030200	-0.2685400	-0.1271400	0.3827100	0.2531600	-0.1784500	0.2735900	-0.1282800	-0.0337500	0.6711000	-0.2950600	0.0794500	0.6143800	-0.4519800	0.1611000	0.6145900	-0.4487500	0.1587700	0.7235500	-0.3025900	0.0719200	0.6526400	-0.4851500	-0.1355700	0.6564700	-0.4792300	-0.1354500	0.7683400	-0.2567000	-0.0937200
769	12.8000000	0.4749800	0.7646600	-0.3187200	0.4008600	0.7596500	-0.4755500	0.3945000	0.4859900	-0.4641200	0.4399100	0.2607100	-0.3855700	0.5505200	0.7702500	-0.1690200	0.5643900	0.4579700	-0.0949500	0.5413400	0.1782600	-0.0381000	0.3708500	0.2362700	-0.2779200	0.3657700	0.2223600	-0.3763800	0.3095800	-0.1741800	-0.2856600	0.7027200	-0.2688700	-0.1283400	0.3793600	0.2503000	-0.1797700	0.2736000	-0.1281800	-0.0336700	0.6704400	-0.2948100	0.0788800	0.6135700	-0.4520900	0.1608600	0.6137300	-0.4488800	0.1585100	0.7227700	-0.3032200	0.0711900	0.6520900	-0.4862900	-0.1356700	0.6559400	-0.4804000	-0.1355500	0.7690100	-0.2571700	-0.0946700
770	12.8166667	0.4752600	0.7644800	-0.3187500	0.4000300	0.7594700	-0.4750200	0.3940400	0.4859400	-0.4640000	0.4384700	0.2608400	-0.3856700	0.5516600	0.7699600	-0.1696800	0.5669800	0.4577600	-0.0971500	0.5437100	0.1777100	-0.0404300	0.3682700	0.2345500	-0.2788100	0.3634800	0.2212100	-0.3768200	0.3094800	-0.1741200	-0.2854700	0.7025200	-0.2691300	-0.1295000	0.3764600	0.2478300	-0.1810300	0.2735800	-0.1280300	-0.0337100	0.6700200	-0.2948200	0.0784000	0.6129900	-0.4520200	0.1606900	0.6131200	-0.4488500	0.1583300	0.7220300	-0.3035400	0.0704400	0.6515800	-0.4870800	-0.1358200	0.6554600	-0.4812100	-0.1357100	0.7696700	-0.2576500	-0.0956300
771	12.8333333	0.4756500	0.7643300	-0.3186500	0.3995300	0.7595600	-0.4743900	0.3937100	0.4857600	-0.4637800	0.4363800	0.2619800	-0.3864500	0.5527200	0.7697900	-0.1702100	0.5694200	0.4574800	-0.0991000	0.5453300	0.1774300	-0.0428000	0.3661600	0.2334400	-0.2796600	0.3618600	0.2206900	-0.3771900	0.3092800	-0.1741700	-0.2853100	0.7024600	-0.2693100	-0.1305300	0.3737800	0.2467000	-0.1824800	0.2734700	-0.1275000	-0.0339800	0.6696200	-0.2948300	0.0779000	0.6128600	-0.4519100	0.1606200	0.6129300	-0.4487200	0.1582200	0.7212200	-0.3033100	0.0696400	0.6509800	-0.4871800	-0.1361200	0.6548700	-0.4812900	-0.1360300	0.7697500	-0.2569200	-0.0969200
772	12.8500000	0.4761300	0.7641300	-0.3184200	0.3993600	0.7593100	-0.4736000	0.3935500	0.4853600	-0.4634400	0.4342800	0.2601000	-0.3866900	0.5537100	0.7695400	-0.1705900	0.5715900	0.4572900	-0.1007900	0.5461700	0.1773300	-0.0452000	0.3645600	0.2314100	-0.2800200	0.3609400	0.2183700	-0.3768900	0.3090500	-0.1744300	-0.2851500	0.7025100	-0.2693000	-0.1313900	0.3714800	0.2450000	-0.1835000	0.2736100	-0.1276600	-0.0341700	0.6692700	-0.2949800	0.0774000	0.6130900	-0.4514800	0.1605300	0.6131600	-0.4483400	0.1581300	0.7210800	-0.3040400	0.0692600	0.6509100	-0.4876100	-0.1362000	0.6548400	-0.4817600	-0.1361100	0.7702800	-0.2570800	-0.0977400
773	12.8666667	0.4766700	0.7639500	-0.3181000	0.3994100	0.7592000	-0.4727500	0.3934800	0.4853600	-0.4630500	0.4312400	0.2661800	-0.3890000	0.5546000	0.7692400	-0.1708100	0.5735000	0.4570300	-0.1021700	0.5463200	0.1770000	-0.0475400	0.3632600	0.2293800	-0.2801900	0.3604000	0.2165500	-0.3765500	0.3086800	-0.1744000	-0.2851000	0.7025900	-0.2690600	-0.1320300	0.3693800	0.2433400	-0.1842900	0.2735400	-0.1271700	-0.0347100	0.6687800	-0.2950300	0.0768200	0.6138700	-0.4509700	0.1605000	0.6139100	-0.4478400	0.1580800	0.7206700	-0.3040200	0.0687300	0.6509500	-0.4877500	-0.1363000	0.6548900	-0.4819000	-0.1362400	0.7706700	-0.2567500	-0.0984800
774	12.8833333	0.4772000	0.7636000	-0.3176700	0.3996300	0.7589500	-0.4718400	0.3936500	0.4850700	-0.4624800	0.4289100	0.2653200	-0.3895500	0.5553400	0.7688300	-0.1708800	0.5751100	0.4567500	-0.1032600	0.5457500	0.1767600	-0.0498400	0.3621900	0.2271500	-0.2801200	0.3601800	0.2144900	-0.3760200	0.3084200	-0.1746800	-0.2850000	0.7027300	-0.2686800	-0.1324100	0.3674700	0.2413100	-0.1847400	0.2735200	-0.1270600	-0.0352900	0.6683100	-0.2952200	0.0762200	0.6151300	-0.4502900	0.1605200	0.6151500	-0.4471800	0.1580700	0.7205000	-0.3043600	0.0683900	0.6510500	-0.4877300	-0.1364300	0.6549900	-0.4819100	-0.1363900	0.7711600	-0.2563300	-0.0989100
775	12.9000000	0.4776900	0.7633400	-0.3171900	0.3999800	0.7587900	-0.4709200	0.3939900	0.4847400	-0.4617800	0.4265700	0.2648300	-0.3901800	0.5559200	0.7683800	-0.1708200	0.5764100	0.4564600	-0.1040700	0.5445600	0.1765900	-0.0520200	0.3611900	0.2258100	-0.2801600	0.3600700	0.2134500	-0.3756400	0.3081400	-0.1747800	-0.2849700	0.7028900	-0.2681700	-0.1325400	0.3657400	0.2390900	-0.1849200	0.2733000	-0.1266900	-0.0361300	0.6679200	-0.2955900	0.0756600	0.6168200	-0.4494600	0.1606200	0.6168100	-0.4463700	0.1581400	0.7203000	-0.3045800	0.0680400	0.6511100	-0.4876100	-0.1366000	0.6550500	-0.4818200	-0.1365700	0.7715800	-0.2554500	-0.0991500
776	12.9166667	0.4781800	0.7627700	-0.3166100	0.4005000	0.7583300	-0.4699600	0.3944300	0.4846200	-0.4610400	0.4244300	0.2628900	-0.3905000	0.5563400	0.7678100	-0.1706200	0.5773600	0.4561300	-0.1046100	0.5429000	0.1762400	-0.0539500	0.3604900	0.2235100	-0.2798000	0.3601800	0.2112800	-0.3749400	0.3079600	-0.1749100	-0.2849400	0.7030400	-0.2676100	-0.1324400	0.3642500	0.2371500	-0.1849800	0.2730000	-0.1267000	-0.0370100	0.6676200	-0.2960200	0.0750900	0.6188000	-0.4485400	0.1608200	0.6187400	-0.4455000	0.1583200	0.7202300	-0.3050300	0.0677900	0.6510700	-0.4874700	-0.1368400	0.6549700	-0.4816600	-0.1368400	0.7720000	-0.2544100	-0.0991500
777	12.9333333	0.4786500	0.7623800	-0.3160200	0.4011700	0.7580900	-0.4690600	0.3949100	0.4844000	-0.4602800	0.4220300	0.2625000	-0.3913100	0.5566000	0.7672900	-0.1703100	0.5779200	0.4558000	-0.1048800	0.5408300	0.1757500	-0.0555900	0.3599100	0.2223500	-0.2796500	0.3602800	0.2103400	-0.3745300	0.3079600	-0.1751200	-0.2849100	0.7031800	-0.2670800	-0.1321900	0.3631300	0.2353800	-0.1848900	0.2725600	-0.1270700	-0.0379300	0.6676400	-0.2969400	0.0746700	0.6207400	-0.4476000	0.1611200	0.6206400	-0.4446400	0.1586000	0.7201500	-0.3054500	0.0674800	0.6507800	-0.4872100	-0.1372000	0.6547000	-0.4814600	-0.1372000	0.7725300	-0.2537000	-0.0988500
778	12.9500000	0.4791600	0.7618800	-0.3153800	0.4020500	0.7578600	-0.4682300	0.3952800	0.4845600	-0.4596600	0.4193600	0.2631800	-0.3925200	0.5567500	0.7666600	-0.1698400	0.5779900	0.4553800	-0.1049000	0.5383200	0.1752900	-0.0569600	0.3596900	0.2208800	-0.2793200	0.3605400	0.2089500	-0.3740400	0.3080500	-0.1752100	-0.2849500	0.7032500	-0.2665800	-0.1318700	0.3625000	0.2338100	-0.1846700	0.2718300	-0.1273700	-0.0389900	0.6676200	-0.2976500	0.0741100	0.6224400	-0.4468200	0.1615300	0.6222700	-0.4439300	0.1589800	0.7201400	-0.3060000	0.0671100	0.6504100	-0.4870500	-0.1376000	0.6543300	-0.4813600	-0.1375900	0.7728300	-0.2528600	-0.0985500
